<svg width="400" height="258" viewBox="0 0 400 258" fill="none" xmlns="http://www.w3.org/2000/svg">
<path d="M384.565 35.7893L396.965 3.75178L396.426 1.7669L273.759 34.0086C286.838 15.1361 282.345 0 282.345 0C282.345 0 243.172 24.9561 213.548 24.3037C183.925 23.6497 174.375 15.7624 128.95 30.2184C83.5253 44.6637 70.6918 89.005 57.5214 98.5303C44.3509 108.056 3.03613 139.085 3.03613 139.085L3.12538 139.636L40.3747 127.805C40.3747 127.805 30.1572 137.407 8.45265 166.589L7.43859 165.654L7.47706 165.86C7.47706 165.86 24.9207 192.454 42.0427 187.537C43.7631 187.038 45.7004 186.218 47.8178 185.142C54.7115 188.972 63.7088 192.736 73.6432 193.772C73.6432 193.772 66.9187 185.974 61.3083 177.101C62.8225 176.128 64.3766 175.116 65.9554 174.092L65.223 174.605L79.4059 179.803L77.841 166.5C77.8918 166.474 77.9302 166.435 77.981 166.409L91.9209 171.518L90.1882 159.418C91.9287 158.508 93.6917 157.642 95.4754 156.82L110.006 101.99L170.088 61.1046L165.313 73.0907C153.132 102.976 130.26 110.031 130.26 110.031L120.71 113.642C113.613 122.016 110.622 124.077 108.184 152.184C113.909 150.75 119.376 150.403 124.329 151.735C150.001 158.637 158.895 189.497 151.976 198.037C150.244 200.175 146.124 203.824 140.926 208.115H130.504L130.363 216.539C130.003 216.822 129.644 217.091 129.296 217.372H118.694L118.566 225.592C117.629 226.31 116.692 227.001 115.795 227.68C105.835 227.884 93.2165 219.215 93.2165 219.215C93.2165 227.104 99.8025 239.242 99.8025 239.242C99.8025 239.242 100.238 239.038 100.969 238.679C100.327 239.153 99.9687 239.409 99.9687 239.409C99.9687 239.409 126.627 257.143 143.416 250.574C158.342 244.735 196.991 214.337 230.35 199.945L331.299 173.414L344.609 139.008L267.674 159.225V128.33L357.946 104.602L371.256 70.1955L267.701 97.4189V66.5066L384.565 35.7893Z" fill="black"/>
</svg>
